<!-- Generated by IcoMoon.io -->
<svg version="1.1" xmlns="http://www.w3.org/2000/svg" width="32" height="32" viewBox="0 0 32 32">
<title>arrow-left</title>
<path fill="#fff" d="M22.708 3.292c0.093 0.093 0.167 0.203 0.217 0.325s0.076 0.252 0.076 0.383c0 0.132-0.026 0.262-0.076 0.383s-0.124 0.232-0.217 0.325l-11.294 11.292 11.294 11.292c0.188 0.188 0.293 0.442 0.293 0.708s-0.105 0.52-0.293 0.708c-0.188 0.188-0.442 0.293-0.708 0.293s-0.52-0.105-0.708-0.293l-12-12c-0.093-0.093-0.167-0.203-0.217-0.325s-0.076-0.252-0.076-0.383c0-0.132 0.026-0.262 0.076-0.383s0.124-0.232 0.217-0.325l12-12c0.093-0.093 0.203-0.167 0.325-0.217s0.252-0.076 0.383-0.076c0.131 0 0.262 0.026 0.383 0.076s0.232 0.124 0.325 0.217z"></path>
</svg>
